<?xml version="1.0" standalone="no"?>
<!DOCTYPE svg PUBLIC "-//W3C//DTD SVG 20010904//EN"
 "http://www.w3.org/TR/2001/REC-SVG-20010904/DTD/svg10.dtd">
<svg version="1.0" xmlns="http://www.w3.org/2000/svg"
 width="535.000000pt" height="535.000000pt" viewBox="0 0 535.000000 535.000000"
 preserveAspectRatio="xMidYMid meet">
<metadata>
Created by potrace 1.11, written by Peter Selinger 2001-2013
</metadata>
<g transform="translate(0.000000,535.000000) scale(0.100000,-0.100000)"
fill="#000000" stroke="none">
<path d="M253 4947 c-66 -25 -119 -73 -152 -137 l-31 -63 0 -1781 c0 -1196 4
-1802 11 -1846 12 -75 43 -134 95 -180 79 -69 9 -65 1051 -68 l942 -3 8 -37
c4 -20 7 -71 6 -112 -1 -137 -50 -249 -153 -352 l-68 -68 -291 0 c-278 0 -292
-1 -311 -20 -26 -26 -27 -90 -2 -113 17 -16 120 -17 1274 -17 1405 0 1284 -7
1281 74 -3 75 -6 76 -319 76 l-273 0 -66 61 c-50 47 -75 81 -105 143 -57 116
-69 210 -44 338 l6 28 680 0 680 0 -8 27 c-22 75 9 296 75 535 15 57 16 70 5
79 -8 6 -14 24 -14 40 0 35 111 279 127 279 6 0 19 -10 28 -22 10 -16 18 -19
23 -11 5 8 23 8 71 0 l65 -12 31 -80 c58 -148 90 -195 134 -195 20 -1 11 -8
-38 -30 -50 -24 -88 -32 -180 -41 -128 -12 -153 -19 -70 -19 95 1 193 18 249
44 66 31 81 32 110 8 25 -20 25 -21 -22 -207 -14 -55 -21 -122 -24 -218 -3
-132 -2 -137 16 -127 31 17 79 82 100 137 17 46 20 90 26 430 l6 378 44 140
c47 150 50 173 33 274 -10 53 -18 72 -45 99 l-34 34 -2 1171 c-3 1307 3 1202
-74 1287 -21 23 -56 51 -78 63 l-41 22 -2350 2 c-1783 1 -2358 -1 -2382 -10z
m2409 -74 c46 -41 -2 -120 -58 -94 -58 26 -43 110 20 111 11 0 28 -7 38 -17z
m-2294 -220 c13 -26 4 -43 -24 -43 -26 0 -40 20 -30 45 8 21 43 19 54 -2z m97
-13 c0 -18 -6 -26 -23 -28 -13 -2 -25 3 -28 12 -10 26 4 48 28 44 17 -2 23
-10 23 -28z m100 0 c0 -18 -6 -26 -23 -28 -13 -2 -25 3 -28 12 -10 26 4 48 28
44 17 -2 23 -10 23 -28z m4485 -2120 c10 -38 8 -46 -46 -157 -58 -122 -127
-310 -139 -382 -6 -36 -10 -41 -41 -47 -19 -3 -42 -3 -51 2 -19 8 -30 10 -77
13 -24 1 -27 4 -22 24 4 12 18 73 31 136 28 132 42 170 96 263 29 49 47 70 66
74 40 10 153 84 153 100 0 29 20 12 30 -26z m100 -1052 c0 -24 -5 -23 -57 8
-48 28 -48 33 0 49 29 10 33 9 44 -15 7 -14 12 -33 13 -42z m-2436 -192 c96
-73 75 -218 -39 -261 -57 -22 -104 -14 -150 26 -110 97 -33 279 112 265 26 -2
56 -14 77 -30z"/>
<path d="M4850 2340 c0 -5 5 -10 10 -10 6 0 10 5 10 10 0 6 -4 10 -10 10 -5 0
-10 -4 -10 -10z"/>
<path d="M4805 2210 c4 -6 11 -8 16 -5 14 9 11 15 -7 15 -8 0 -12 -5 -9 -10z"/>
<path d="M4775 2070 c3 -5 8 -10 11 -10 2 0 4 5 4 10 0 6 -5 10 -11 10 -5 0
-7 -4 -4 -10z"/>
<path d="M4675 1670 c3 -5 8 -10 11 -10 2 0 4 5 4 10 0 6 -5 10 -11 10 -5 0
-7 -4 -4 -10z"/>
<path d="M4661 1544 c0 -11 3 -14 6 -6 3 7 2 16 -1 19 -3 4 -6 -2 -5 -13z"/>
<path d="M4651 1504 c0 -11 3 -14 6 -6 3 7 2 16 -1 19 -3 4 -6 -2 -5 -13z"/>
<path d="M4690 1510 c0 -5 5 -10 10 -10 6 0 10 5 10 10 0 6 -4 10 -10 10 -5 0
-10 -4 -10 -10z"/>
<path d="M4690 1480 c0 -5 5 -10 10 -10 6 0 10 5 10 10 0 6 -4 10 -10 10 -5 0
-10 -4 -10 -10z"/>
<path d="M4641 1458 c-1 -20 -31 -24 -49 -6 -6 6 -14 9 -18 6 -3 -4 9 -14 26
-23 36 -18 55 -10 47 21 -4 17 -5 17 -6 2z"/>
<path d="M4704 1375 c-3 -8 2 -68 11 -134 10 -66 15 -134 11 -151 -3 -16 -8
-45 -11 -62 -9 -49 -58 -147 -74 -148 -8 0 -11 -3 -7 -7 6 -6 207 -5 213 1 2
1 -4 45 -12 97 -7 52 -17 130 -21 174 -4 44 -11 82 -15 85 -4 3 -15 32 -23 64
-21 78 -58 120 -72 81z"/>
<path d="M4590 845 c34 -36 79 -60 92 -47 12 12 -16 32 -77 58 l-40 16 25 -27z"/>
<path d="M4875 859 c-4 -6 -5 -12 -3 -14 6 -6 57 -9 108 -6 l45 3 -30 13 c-36
17 -111 19 -120 4z"/>
<path d="M4960 820 c0 -22 41 -70 61 -70 25 0 24 12 -3 36 -46 40 -58 47 -58
34z"/>
<path d="M4919 500 c20 -17 81 -29 81 -15 0 7 -70 35 -89 35 -12 -1 -11 -5 8
-20z"/>
<path d="M945 446 c-16 -7 -47 -16 -67 -20 -31 -6 -38 -11 -38 -30 0 -12 6
-30 13 -39 25 -35 251 -53 264 -22 3 9 -10 39 -31 70 -33 51 -39 55 -74 55
-20 -1 -50 -7 -67 -14z"/>
<path d="M4913 438 c-28 -13 -30 -28 -5 -28 19 0 42 18 42 32 0 10 -10 9 -37
-4z"/>
<path d="M4600 410 c0 -11 7 -20 15 -20 8 0 15 5 15 10 0 6 19 10 43 11 32 0
37 2 22 9 -11 5 -37 9 -57 9 -32 1 -38 -2 -38 -19z"/>
<path d="M4890 391 c0 -15 42 -41 67 -41 34 0 28 19 -12 36 -40 16 -55 18 -55
5z"/>
<path d="M4535 329 c-38 -44 -60 -62 -90 -70 -55 -15 -85 -36 -85 -59 0 -45
81 -52 230 -20 52 11 111 24 130 28 29 6 35 11 33 32 -1 14 -3 49 -4 78 -2 28
-8 52 -14 51 -5 0 -32 -4 -60 -9 -42 -7 -53 -5 -70 10 -20 18 -21 18 -70 -41z"/>
<path d="M4816 269 c-9 -39 -23 -84 -31 -100 -31 -59 -18 -76 60 -80 83 -5
112 16 130 94 20 84 7 110 -64 131 -31 9 -61 19 -68 22 -7 3 -17 -21 -27 -67z"/>
<path d="M525 189 c-27 -11 -72 -23 -100 -27 -48 -7 -50 -8 -47 -37 8 -74 40
-89 220 -104 119 -11 162 -4 162 25 0 9 -21 50 -47 90 l-46 74 -46 0 c-25 -1
-68 -10 -96 -21z"/>
</g>
</svg>
