<?xml version="1.0" encoding="UTF-8" standalone="no"?>
<!-- Created with Inkscape (http://www.inkscape.org/) -->

<svg
   xmlns:dc="http://purl.org/dc/elements/1.1/"
   xmlns:cc="http://creativecommons.org/ns#"
   xmlns:rdf="http://www.w3.org/1999/02/22-rdf-syntax-ns#"
   xmlns:svg="http://www.w3.org/2000/svg"
   xmlns="http://www.w3.org/2000/svg"
   xmlns:sodipodi="http://sodipodi.sourceforge.net/DTD/sodipodi-0.dtd"
   xmlns:inkscape="http://www.inkscape.org/namespaces/inkscape"
   width="320"
   height="180"
   viewBox="0 0 320 180"
   id="svg2"
   version="1.1"
   inkscape:version="0.91 r13725"
   sodipodi:docname="nopic-de.svg">
  <defs
     id="defs4" />
  <sodipodi:namedview
     id="base"
     pagecolor="#ffffff"
     bordercolor="#666666"
     borderopacity="1.0"
     inkscape:pageopacity="0.0"
     inkscape:pageshadow="2"
     inkscape:zoom="1.4"
     inkscape:cx="152.27216"
     inkscape:cy="79.247087"
     inkscape:document-units="px"
     inkscape:current-layer="layer1"
     showgrid="false"
     units="px"
     inkscape:window-width="1680"
     inkscape:window-height="1026"
     inkscape:window-x="0"
     inkscape:window-y="24"
     inkscape:window-maximized="1" />
  <metadata
     id="metadata7">
    <rdf:RDF>
      <cc:Work
         rdf:about="">
        <dc:format>image/svg+xml</dc:format>
        <dc:type
           rdf:resource="http://purl.org/dc/dcmitype/StillImage" />
        <dc:title></dc:title>
      </cc:Work>
    </rdf:RDF>
  </metadata>
  <g
     inkscape:label="Ebene 1"
     inkscape:groupmode="layer"
     id="layer1"
     transform="translate(0,-872.36219)">
    <rect
       style="fill:#eaeaea;fill-opacity:1;stroke:none;stroke-width:4;stroke-miterlimit:4;stroke-dasharray:none;stroke-opacity:1"
       id="rect4136"
       width="320"
       height="180"
       x="0"
       y="872.36218"
       sodipodi:insensitive="true" />
    <path
       style="fill:none;fill-rule:evenodd;stroke:#cbcbcb;stroke-width:2;stroke-linecap:butt;stroke-linejoin:miter;stroke-opacity:1;stroke-miterlimit:4;stroke-dasharray:none"
       d="M 0.23797854,1051.9393 319.76203,872.77911"
       id="path4138"
       inkscape:connector-curvature="0" />
    <path
       style="fill:none;fill-rule:evenodd;stroke:#cbcbcb;stroke-width:2;stroke-linecap:butt;stroke-linejoin:miter;stroke-miterlimit:4;stroke-dasharray:none;stroke-opacity:1"
       d="M 319.76203,1051.9393 0.23797849,872.77911"
       id="path4138-3"
       inkscape:connector-curvature="0" />
    <g
       transform="translate(0,902.36219)"
       style="font-style:normal;font-weight:normal;font-size:40px;line-height:125%;font-family:sans-serif;letter-spacing:0px;word-spacing:0px;fill:#676767;fill-opacity:1;stroke:none;stroke-width:1px;stroke-linecap:butt;stroke-linejoin:miter;stroke-opacity:1"
       id="flowRoot4174">
      <path
         d="m 63.607422,45.950027 -7.41211,-9.477539 -2.548828,1.948242 0,7.529297 -4.321289,0 0,-20.639648 4.321289,0 0,9.360351 9.301758,-9.360351 5.039063,0 -8.81836,8.730469 9.536133,11.909179 -5.097656,0 z"
         style="font-style:normal;font-variant:normal;font-weight:bold;font-stretch:normal;font-size:30px;font-family:'Liberation Sans';-inkscape-font-specification:'Liberation Sans Bold';text-align:center;text-anchor:middle;fill:#676767;fill-opacity:1"
         id="path4185" />
      <path
         d="m 77.582031,46.242996 q -1.713867,0 -3.09082,-0.498047 -1.362305,-0.512695 -2.329102,-1.538086 -0.966797,-1.040039 -1.479492,-2.592773 -0.512695,-1.567383 -0.512695,-3.66211 0,-2.270507 0.600586,-3.823242 0.615234,-1.552734 1.640625,-2.504883 1.040039,-0.966796 2.387695,-1.391601 1.347656,-0.424805 2.841797,-0.424805 1.875,0 3.193359,0.65918 1.333008,0.644531 2.182618,1.816406 0.849609,1.171875 1.245117,2.8125 0.395508,1.625977 0.395508,3.603516 l 0,0.117187 -10.166016,0 q 0,0.996094 0.175781,1.860352 0.175781,0.849609 0.571289,1.479492 0.395508,0.615234 1.025391,0.981445 0.629883,0.351563 1.523437,0.351563 1.083985,0 1.772461,-0.454102 0.688477,-0.46875 0.981446,-1.435547 l 3.881836,0.336914 q -0.263672,0.673829 -0.747071,1.435547 -0.46875,0.761719 -1.259765,1.40625 -0.791016,0.629883 -1.977539,1.054688 -1.171875,0.410156 -2.856446,0.410156 z m 0,-13.842773 q -0.629883,0 -1.186523,0.219726 -0.541992,0.205078 -0.952149,0.673828 -0.395507,0.454102 -0.644531,1.186524 -0.249023,0.732422 -0.27832,1.757812 l 6.152344,0 Q 80.555664,34.319168 79.75,33.36702 78.944336,32.400223 77.582031,32.400223 Z"
         style="font-style:normal;font-variant:normal;font-weight:bold;font-stretch:normal;font-size:30px;font-family:'Liberation Sans';-inkscape-font-specification:'Liberation Sans Bold';text-align:center;text-anchor:middle;fill:#676767;fill-opacity:1"
         id="path4187" />
      <path
         d="m 87.791992,27.243973 0,-3.032227 4.116211,0 0,3.032227 -4.116211,0 z m 0,18.706054 0,-15.849609 4.116211,0 0,15.849609 -4.116211,0 z"
         style="font-style:normal;font-variant:normal;font-weight:bold;font-stretch:normal;font-size:30px;font-family:'Liberation Sans';-inkscape-font-specification:'Liberation Sans Bold';text-align:center;text-anchor:middle;fill:#676767;fill-opacity:1"
         id="path4189" />
      <path
         d="m 106.38086,45.950027 0,-8.891601 q 0,-0.922852 -0.14648,-1.684571 -0.14649,-0.776367 -0.4834,-1.318359 -0.33692,-0.556641 -0.87891,-0.864258 -0.54199,-0.307617 -1.31836,-0.307617 -0.74707,0 -1.3623,0.336914 -0.60059,0.322266 -1.04004,0.9375 -0.43946,0.600586 -0.68848,1.450195 -0.23437,0.834961 -0.23437,1.845704 l 0,8.496093 -4.116215,0 0,-12.304687 q 0,-0.512695 -0.01465,-1.054688 0,-0.541992 -0.0293,-1.02539 -0.01465,-0.498047 -0.0293,-0.878907 -0.01465,-0.395507 -0.04395,-0.585937 l 3.925781,0 q 0.0293,0.175781 0.05859,0.571289 0.0293,0.380859 0.0586,0.849609 0.0293,0.46875 0.0439,0.9375 0.0293,0.46875 0.0293,0.791016 l 0.0586,0 q 0.83496,-1.816406 2.09473,-2.636719 1.25976,-0.820312 3.00293,-0.820312 1.43555,0 2.41699,0.46875 0.99609,0.46875 1.61133,1.289062 0.62988,0.820313 0.9082,1.933594 0.27832,1.113281 0.27832,2.402344 l 0,10.063476 -4.10156,0 z"
         style="font-style:normal;font-variant:normal;font-weight:bold;font-stretch:normal;font-size:30px;font-family:'Liberation Sans';-inkscape-font-specification:'Liberation Sans Bold';text-align:center;text-anchor:middle;fill:#676767;fill-opacity:1"
         id="path4191" />
      <path
         d="m 120.94141,46.242996 q -1.71387,0 -3.09082,-0.498047 -1.36231,-0.512695 -2.32911,-1.538086 -0.96679,-1.040039 -1.47949,-2.592773 -0.51269,-1.567383 -0.51269,-3.66211 0,-2.270507 0.60058,-3.823242 0.61524,-1.552734 1.64063,-2.504883 1.04004,-0.966796 2.38769,-1.391601 1.34766,-0.424805 2.8418,-0.424805 1.875,0 3.19336,0.65918 1.33301,0.644531 2.18262,1.816406 0.84961,1.171875 1.24511,2.8125 0.39551,1.625977 0.39551,3.603516 l 0,0.117187 -10.16601,0 q 0,0.996094 0.17578,1.860352 0.17578,0.849609 0.57129,1.479492 0.3955,0.615234 1.02539,0.981445 0.62988,0.351563 1.52343,0.351563 1.08399,0 1.77247,-0.454102 0.68847,-0.46875 0.98144,-1.435547 l 3.88184,0.336914 q -0.26368,0.673829 -0.74707,1.435547 -0.46875,0.761719 -1.25977,1.40625 -0.79101,0.629883 -1.97754,1.054688 -1.17187,0.410156 -2.85644,0.410156 z m 0,-13.842773 q -0.62989,0 -1.18653,0.219726 -0.54199,0.205078 -0.95215,0.673828 -0.3955,0.454102 -0.64453,1.186524 -0.24902,0.732422 -0.27832,1.757812 l 6.15235,0 q -0.11719,-1.918945 -0.92285,-2.871093 -0.80567,-0.966797 -2.16797,-0.966797 z"
         style="font-style:normal;font-variant:normal;font-weight:bold;font-stretch:normal;font-size:30px;font-family:'Liberation Sans';-inkscape-font-specification:'Liberation Sans Bold';text-align:center;text-anchor:middle;fill:#676767;fill-opacity:1"
         id="path4193" />
      <path
         d="m 149.59375,45.950027 -4.37988,0 -7.63184,-20.639648 4.51172,0 4.24805,13.256836 q 0.20507,0.65918 0.3955,1.347656 0.19043,0.688477 0.35157,1.259766 0.17578,0.673828 0.33691,1.289062 0.14649,-0.600586 0.30762,-1.259765 0.14648,-0.556641 0.33691,-1.245118 0.20508,-0.703125 0.41016,-1.391601 l 4.2334,-13.256836 4.46777,0 -7.58789,20.639648 z"
         style="font-style:normal;font-variant:normal;font-weight:bold;font-stretch:normal;font-size:30px;font-family:'Liberation Sans';-inkscape-font-specification:'Liberation Sans Bold';text-align:center;text-anchor:middle;fill:#676767;fill-opacity:1"
         id="path4195" />
      <path
         d="m 172.34277,38.010574 q 0,1.816406 -0.51269,3.325196 -0.49805,1.508789 -1.50879,2.607421 -1.01074,1.083985 -2.51953,1.699219 -1.50879,0.600586 -3.51563,0.600586 -1.93359,0 -3.41308,-0.600586 -1.4795,-0.600586 -2.49024,-1.68457 -0.99609,-1.083985 -1.50879,-2.592774 -0.51269,-1.523437 -0.51269,-3.354492 0,-1.772461 0.4834,-3.266601 0.49804,-1.508789 1.49414,-2.607422 0.99609,-1.098633 2.50488,-1.713867 1.50879,-0.615235 3.53027,-0.615235 2.13868,0 3.64746,0.615235 1.50879,0.615234 2.46094,1.713867 0.9668,1.083984 1.40625,2.592773 0.4541,1.494141 0.4541,3.28125 z m -4.30664,0 q 0,-2.827148 -0.92285,-4.101562 -0.92285,-1.274414 -2.68066,-1.274414 -1.81641,0 -2.78321,1.289062 -0.96679,1.289063 -0.96679,4.086914 0,1.420899 0.24902,2.446289 0.26367,1.025391 0.73242,1.684571 0.46875,0.659179 1.12793,0.981445 0.65918,0.307617 1.4502,0.307617 0.9082,0 1.61133,-0.307617 0.71777,-0.322266 1.20117,-0.981445 0.4834,-0.65918 0.73242,-1.684571 0.24902,-1.02539 0.24902,-2.446289 z"
         style="font-style:normal;font-variant:normal;font-weight:bold;font-stretch:normal;font-size:30px;font-family:'Liberation Sans';-inkscape-font-specification:'Liberation Sans Bold';text-align:center;text-anchor:middle;fill:#676767;fill-opacity:1"
         id="path4197" />
      <path
         d="m 175.62402,45.950027 0,-12.128906 q 0,-0.512695 -0.0146,-1.083984 0,-0.571289 -0.0293,-1.083985 -0.0147,-0.527343 -0.0293,-0.9375 -0.0146,-0.424804 -0.0439,-0.615234 l 3.92578,0 q 0.0293,0.175781 0.0586,0.615234 0.0293,0.424805 0.0586,0.9375 0.0293,0.512696 0.0439,1.025391 0.0293,0.498047 0.0293,0.805664 l 0.0586,0 q 0.30762,-0.864258 0.61523,-1.538086 0.30762,-0.688476 0.71778,-1.157226 0.4248,-0.483399 1.01074,-0.732422 0.58594,-0.263672 1.4502,-0.263672 0.36621,0 0.71777,0.07324 0.36621,0.05859 0.55664,0.146484 l 0,3.442383 q -0.39551,-0.08789 -0.80566,-0.146484 -0.39551,-0.07324 -0.95215,-0.07324 -1.53809,0 -2.40235,1.245117 -0.84961,1.245117 -0.84961,3.691406 l 0,7.77832 -4.11621,0 z"
         style="font-style:normal;font-variant:normal;font-weight:bold;font-stretch:normal;font-size:30px;font-family:'Liberation Sans';-inkscape-font-specification:'Liberation Sans Bold';text-align:center;text-anchor:middle;fill:#676767;fill-opacity:1"
         id="path4199" />
      <path
         d="m 200.64355,41.321121 q 0,1.142578 -0.48339,2.050781 -0.46875,0.908203 -1.37696,1.552735 -0.9082,0.629883 -2.22656,0.981445 -1.31836,0.336914 -3.00293,0.336914 -1.50879,0 -2.72461,-0.219726 -1.21582,-0.219727 -2.13867,-0.717774 -0.9082,-0.512695 -1.52344,-1.318359 -0.61523,-0.805664 -0.92285,-1.992188 l 3.61816,-0.541992 q 0.17579,0.65918 0.4834,1.069336 0.30762,0.410156 0.76172,0.629883 0.4541,0.219726 1.05469,0.292969 0.61523,0.07324 1.3916,0.07324 0.70313,0 1.30371,-0.07324 0.61524,-0.08789 1.05469,-0.278321 0.4541,-0.205078 0.70312,-0.55664 0.24903,-0.366211 0.24903,-0.908204 0,-0.615234 -0.36621,-0.966796 -0.35157,-0.366211 -0.98145,-0.585938 -0.61523,-0.234375 -1.46484,-0.395508 -0.83496,-0.175781 -1.78711,-0.395508 -0.9961,-0.219726 -1.96289,-0.527343 -0.9668,-0.307617 -1.72852,-0.834961 -0.76172,-0.527344 -1.23047,-1.333008 -0.46875,-0.820313 -0.46875,-2.06543 0,-1.127929 0.43946,-2.006836 0.43945,-0.893554 1.28906,-1.508789 0.84961,-0.629883 2.09473,-0.952148 1.25976,-0.336914 2.88574,-0.336914 1.28906,0 2.40234,0.249023 1.11328,0.234375 1.99219,0.761719 0.87891,0.512695 1.46484,1.318359 0.60059,0.805664 0.83496,1.948243 l -3.64746,0.380859 q -0.10254,-0.571289 -0.36621,-0.9375 -0.26367,-0.380859 -0.65918,-0.600586 -0.38086,-0.219727 -0.89355,-0.292969 -0.5127,-0.08789 -1.12793,-0.08789 -1.46485,0 -2.19727,0.380859 -0.73242,0.366211 -0.73242,1.245117 0,0.541992 0.29297,0.864258 0.30762,0.322266 0.84961,0.541992 0.55664,0.205078 1.30371,0.366211 0.76172,0.146484 1.65527,0.366211 1.09864,0.234375 2.15332,0.556641 1.06934,0.307617 1.88965,0.864257 0.83496,0.541993 1.33301,1.40625 0.51269,0.864258 0.51269,2.197266 z"
         style="font-style:normal;font-variant:normal;font-weight:bold;font-stretch:normal;font-size:30px;font-family:'Liberation Sans';-inkscape-font-specification:'Liberation Sans Bold';text-align:center;text-anchor:middle;fill:#676767;fill-opacity:1"
         id="path4201" />
      <path
         d="m 210.58984,46.242996 q -1.88964,0 -3.31054,-0.585937 -1.40625,-0.585938 -2.34375,-1.655274 -0.9375,-1.069336 -1.40625,-2.563476 -0.46875,-1.508789 -0.46875,-3.325196 0,-1.977539 0.51269,-3.515625 0.5127,-1.552734 1.47949,-2.607422 0.9668,-1.069336 2.37305,-1.625976 1.4209,-0.556641 3.22266,-0.556641 1.53808,0 2.72461,0.410156 1.20117,0.410157 2.06543,1.12793 0.86425,0.703125 1.3916,1.669922 0.54199,0.966797 0.74707,2.080078 l -4.14551,0.205078 q -0.17578,-1.21582 -0.87891,-1.933593 -0.70312,-0.732422 -1.99218,-0.732422 -1.65528,0 -2.417,1.362304 -0.76171,1.362305 -0.76171,3.955078 0,5.478516 3.2373,5.478516 1.17188,0 1.96289,-0.732422 0.79102,-0.74707 0.98145,-2.211914 l 4.13086,0.19043 q -0.14649,1.098633 -0.67383,2.109375 -0.5127,0.996094 -1.40625,1.772461 -0.87891,0.761719 -2.13867,1.230469 -1.25977,0.454101 -2.88575,0.454101 z"
         style="font-style:normal;font-variant:normal;font-weight:bold;font-stretch:normal;font-size:30px;font-family:'Liberation Sans';-inkscape-font-specification:'Liberation Sans Bold';text-align:center;text-anchor:middle;fill:#676767;fill-opacity:1"
         id="path4203" />
      <path
         d="m 224.74023,33.26448 q 0.83497,-1.816406 2.09473,-2.636718 1.25977,-0.820313 3.00293,-0.820313 1.43555,0 2.41699,0.46875 0.9961,0.46875 1.61133,1.289063 0.62988,0.820312 0.9082,1.933593 0.27832,1.113282 0.27832,2.402344 l 0,10.048828 -4.10156,0 0,-8.876953 q 0,-0.922851 -0.14648,-1.68457 -0.14649,-0.776367 -0.4834,-1.318359 -0.33692,-0.556641 -0.87891,-0.864258 -0.54199,-0.307617 -1.31836,-0.307617 -0.74707,0 -1.3623,0.336914 -0.60059,0.322265 -1.04004,0.9375 -0.43945,0.600586 -0.68848,1.450195 -0.23437,0.834961 -0.23437,1.845703 l 0,8.481445 -4.11621,0 0,-21.738281 4.11621,0 0,5.932617 q 0,0.46875 -0.0147,0.952149 -0.0146,0.46875 -0.0439,0.893554 -0.0146,0.410157 -0.0293,0.747071 -0.0146,0.336914 -0.0293,0.527343 l 0.0586,0 z"
         style="font-style:normal;font-variant:normal;font-weight:bold;font-stretch:normal;font-size:30px;font-family:'Liberation Sans';-inkscape-font-specification:'Liberation Sans Bold';text-align:center;text-anchor:middle;fill:#676767;fill-opacity:1"
         id="path4205" />
      <path
         d="m 242.68457,46.242996 q -1.14258,0 -2.05078,-0.307617 -0.89356,-0.322266 -1.52344,-0.922852 -0.62988,-0.615234 -0.9668,-1.508789 -0.33691,-0.893554 -0.33691,-2.036133 0,-1.40625 0.4834,-2.358398 0.49805,-0.966797 1.34766,-1.552734 0.8496,-0.600586 1.99218,-0.864258 1.14258,-0.27832 2.43164,-0.292969 l 3.41309,-0.05859 0,-0.805664 q 0,-0.864258 -0.16113,-1.435547 -0.14649,-0.585937 -0.43946,-0.952148 -0.29297,-0.366211 -0.73242,-0.512695 -0.4248,-0.161133 -0.98144,-0.161133 -0.5127,0 -0.92286,0.102539 -0.3955,0.102539 -0.68847,0.366211 -0.29297,0.249023 -0.4834,0.688476 -0.17578,0.424805 -0.24902,1.083985 l -4.292,-0.205078 q 0.17579,-1.040039 0.64454,-1.889649 0.46875,-0.864258 1.28906,-1.49414 0.83496,-0.629883 2.03613,-0.966797 1.21582,-0.351563 2.8418,-0.351563 1.47949,0 2.63672,0.366211 1.15722,0.366211 1.96289,1.098633 0.80566,0.717773 1.23047,1.772461 0.4248,1.054687 0.4248,2.446289 l 0,5.771484 q 0,0.556641 0.0439,0.996094 0.0586,0.439453 0.19043,0.74707 0.14648,0.292969 0.3955,0.454102 0.26367,0.146484 0.67383,0.146484 0.46875,0 0.9082,-0.08789 l 0,2.226562 q -0.36621,0.08789 -0.65918,0.161133 -0.29296,0.07324 -0.58593,0.117188 -0.29297,0.04395 -0.62989,0.07324 -0.32226,0.0293 -0.76171,0.0293 -1.55274,0 -2.29981,-0.761719 -0.73242,-0.761719 -0.87891,-2.241211 l -0.0879,0 q -0.82031,1.479492 -2.10937,2.299805 -1.27442,0.820312 -3.10547,0.820312 z m 4.79004,-7.631836 -2.10938,0.0293 q -0.65918,0.0293 -1.25976,0.117188 -0.58594,0.07324 -1.04004,0.336914 -0.43945,0.249023 -0.70313,0.732421 -0.26367,0.483399 -0.26367,1.31836 0,1.12793 0.5127,1.68457 0.52734,0.541992 1.3916,0.541992 0.79102,0 1.43555,-0.336914 0.64453,-0.336914 1.08398,-0.878906 0.4541,-0.556641 0.70313,-1.274414 0.24902,-0.717773 0.24902,-1.464844 l 0,-0.805664 z"
         style="font-style:normal;font-variant:normal;font-weight:bold;font-stretch:normal;font-size:30px;font-family:'Liberation Sans';-inkscape-font-specification:'Liberation Sans Bold';text-align:center;text-anchor:middle;fill:#676767;fill-opacity:1"
         id="path4207" />
      <path
         d="m 259.60352,30.100418 0,8.891602 q 0,0.922851 0.14648,1.699218 0.14648,0.761719 0.4834,1.31836 0.33691,0.541992 0.86426,0.849609 0.54199,0.307617 1.31836,0.307617 0.74707,0 1.34765,-0.322265 0.61524,-0.336914 1.05469,-0.9375 0.43945,-0.615235 0.67383,-1.450196 0.24902,-0.849609 0.24902,-1.860351 l 0,-8.496094 4.11621,0 0,12.304687 q 0,0.498047 0,1.054688 0.0147,0.541992 0.0293,1.040039 0.0293,0.483398 0.0439,0.878906 0.0293,0.38086 0.0439,0.571289 l -3.92578,0 q -0.0147,-0.175781 -0.0586,-0.55664 -0.0293,-0.395508 -0.0586,-0.864258 -0.0147,-0.46875 -0.0439,-0.9375 -0.0147,-0.46875 -0.0147,-0.791016 l -0.0732,0 q -0.82031,1.801758 -2.09472,2.622071 -1.25977,0.820312 -3.00293,0.820312 -1.4209,0 -2.41699,-0.46875 -0.9961,-0.46875 -1.62598,-1.274414 -0.61523,-0.820312 -0.89356,-1.933594 -0.27832,-1.113281 -0.27832,-2.402343 l 0,-10.063477 4.11622,0 z"
         style="font-style:normal;font-variant:normal;font-weight:bold;font-stretch:normal;font-size:30px;font-family:'Liberation Sans';-inkscape-font-specification:'Liberation Sans Bold';text-align:center;text-anchor:middle;fill:#676767;fill-opacity:1"
         id="path4209" />
      <path
         d="m 98.69043,80.124832 3.96973,-12.524414 4.30664,0 -5.84473,15.849609 -4.921875,0 -5.668945,-15.849609 4.350586,0 3.808594,12.524414 z"
         style="font-style:normal;font-variant:normal;font-weight:bold;font-stretch:normal;font-size:30px;font-family:'Liberation Sans';-inkscape-font-specification:'Liberation Sans Bold';text-align:center;text-anchor:middle;fill:#676767;fill-opacity:1"
         id="path4211" />
      <path
         d="m 115.69727,83.742996 q -1.71387,0 -3.09082,-0.498047 -1.36231,-0.512695 -2.32911,-1.538086 -0.96679,-1.040039 -1.47949,-2.592773 -0.51269,-1.567383 -0.51269,-3.66211 0,-2.270507 0.60058,-3.823242 0.61524,-1.552734 1.64063,-2.504883 1.04004,-0.966796 2.38769,-1.391601 1.34766,-0.424805 2.8418,-0.424805 1.875,0 3.19336,0.65918 1.33301,0.644531 2.18262,1.816406 0.84961,1.171875 1.24511,2.8125 0.39551,1.625977 0.39551,3.603516 l 0,0.117187 -10.16601,0 q 0,0.996094 0.17578,1.860352 0.17578,0.849609 0.57129,1.479492 0.3955,0.615234 1.02539,0.981445 0.62988,0.351563 1.52343,0.351563 1.08399,0 1.77246,-0.454102 0.68848,-0.46875 0.98145,-1.435547 l 3.88184,0.336914 q -0.26368,0.673829 -0.74707,1.435547 -0.46875,0.761719 -1.25977,1.40625 -0.79102,0.629883 -1.97754,1.054688 -1.17187,0.410156 -2.85644,0.410156 z m 0,-13.842773 q -0.62989,0 -1.18653,0.219726 -0.54199,0.205078 -0.95215,0.673828 -0.3955,0.454102 -0.64453,1.186524 -0.24902,0.732422 -0.27832,1.757812 l 6.15235,0 q -0.11719,-1.918945 -0.92286,-2.871093 -0.80566,-0.966797 -2.16796,-0.966797 z"
         style="font-style:normal;font-variant:normal;font-weight:bold;font-stretch:normal;font-size:30px;font-family:'Liberation Sans';-inkscape-font-specification:'Liberation Sans Bold';text-align:center;text-anchor:middle;fill:#676767;fill-opacity:1"
         id="path4213" />
      <path
         d="m 125.90723,83.450027 0,-12.128906 q 0,-0.512695 -0.0147,-1.083984 0,-0.571289 -0.0293,-1.083985 -0.0147,-0.527343 -0.0293,-0.9375 -0.0146,-0.424804 -0.0439,-0.615234 l 3.92578,0 q 0.0293,0.175781 0.0586,0.615234 0.0293,0.424805 0.0586,0.9375 0.0293,0.512696 0.0439,1.025391 0.0293,0.498047 0.0293,0.805664 l 0.0586,0 q 0.30762,-0.864258 0.61524,-1.538086 0.30762,-0.688476 0.71777,-1.157226 0.42481,-0.483399 1.01074,-0.732422 0.58594,-0.263672 1.4502,-0.263672 0.36621,0 0.71777,0.07324 0.36621,0.05859 0.55664,0.146484 l 0,3.442383 q -0.3955,-0.08789 -0.80566,-0.146484 -0.39551,-0.07324 -0.95215,-0.07324 -1.53809,0 -2.40234,1.245117 -0.84961,1.245117 -0.84961,3.691406 l 0,7.77832 -4.11621,0 z"
         style="font-style:normal;font-variant:normal;font-weight:bold;font-stretch:normal;font-size:30px;font-family:'Liberation Sans';-inkscape-font-specification:'Liberation Sans Bold';text-align:center;text-anchor:middle;fill:#676767;fill-opacity:1"
         id="path4215" />
      <path
         d="m 142.40137,70.383621 0,13.066406 -4.10157,0 0,-13.066406 -2.31445,0 0,-2.783203 2.31445,0 0,-1.655273 q 0,-0.908204 0.21973,-1.669922 0.21973,-0.776368 0.74707,-1.347657 0.52735,-0.571289 1.4209,-0.893554 0.89355,-0.322266 2.22656,-0.322266 0.70313,0 1.37696,0.07324 0.68847,0.07324 1.23046,0.161133 l 0,2.651367 q -0.26367,-0.05859 -0.60058,-0.08789 -0.32227,-0.04395 -0.60059,-0.04395 -0.57129,0 -0.95215,0.117188 -0.36621,0.117187 -0.58593,0.351562 -0.20508,0.234375 -0.29297,0.600586 -0.0879,0.351563 -0.0879,0.820313 l 0,1.245117 3.12011,0 0,2.783203 -3.12011,0 z"
         style="font-style:normal;font-variant:normal;font-weight:bold;font-stretch:normal;font-size:30px;font-family:'Liberation Sans';-inkscape-font-specification:'Liberation Sans Bold';text-align:center;text-anchor:middle;fill:#676767;fill-opacity:1"
         id="path4217" />
      <path
         d="m 151.46875,67.600418 0,8.891602 q 0,0.922851 0.14648,1.699218 0.14649,0.761719 0.4834,1.31836 0.33692,0.541992 0.86426,0.849609 0.54199,0.307617 1.31836,0.307617 0.74707,0 1.34766,-0.322265 0.61523,-0.336914 1.05468,-0.9375 0.43946,-0.615235 0.67383,-1.450196 0.24903,-0.849609 0.24903,-1.860351 l 0,-8.496094 4.11621,0 0,12.304687 q 0,0.498047 0,1.054688 0.0146,0.541992 0.0293,1.040039 0.0293,0.483398 0.0439,0.878906 0.0293,0.38086 0.0439,0.571289 l -3.92578,0 q -0.0147,-0.175781 -0.0586,-0.55664 -0.0293,-0.395508 -0.0586,-0.864258 -0.0146,-0.46875 -0.0439,-0.9375 -0.0146,-0.46875 -0.0146,-0.791016 l -0.0732,0 q -0.82031,1.801758 -2.09473,2.622071 -1.25976,0.820312 -3.00293,0.820312 -1.4209,0 -2.41699,-0.46875 -0.99609,-0.46875 -1.62598,-1.274414 -0.61523,-0.820312 -0.89355,-1.933594 -0.27832,-1.113281 -0.27832,-2.402343 l 0,-10.063477 4.11621,0 z m 4.74609,-1.713867 0,-3.208008 3.17871,0 0,3.208008 -3.17871,0 z m -6.35742,0 0,-3.208008 3.13477,0 0,3.208008 -3.13477,0 z"
         style="font-style:normal;font-variant:normal;font-weight:bold;font-stretch:normal;font-size:30px;font-family:'Liberation Sans';-inkscape-font-specification:'Liberation Sans Bold';text-align:center;text-anchor:middle;fill:#676767;fill-opacity:1"
         id="path4219" />
      <path
         d="m 172.5625,89.807449 q -1.56738,0 -2.76855,-0.322265 -1.18653,-0.307618 -2.03614,-0.878907 -0.83496,-0.55664 -1.34765,-1.347656 -0.49805,-0.776367 -0.68848,-1.713867 l 4.11621,-0.483399 q 0.21973,0.952149 0.9375,1.494141 0.73242,0.541992 1.9043,0.541992 0.73242,0 1.33301,-0.205078 0.61523,-0.205078 1.04003,-0.703125 0.43946,-0.483398 0.67383,-1.289062 0.24903,-0.805664 0.24903,-1.992188 0,-0.410156 0,-0.834961 0,-0.424804 0.0146,-0.776367 0.0147,-0.410156 0.0147,-0.791016 l -0.0293,0 q -0.71778,1.538086 -2.02149,2.226563 -1.28906,0.688476 -3.07617,0.688476 -1.50879,0 -2.60742,-0.585937 -1.08399,-0.600586 -1.80176,-1.655273 -0.71777,-1.069336 -1.06934,-2.53418 -0.33691,-1.479492 -0.33691,-3.251953 0,-1.831055 0.36621,-3.310547 0.36621,-1.494141 1.11328,-2.563477 0.76172,-1.069336 1.9043,-1.640625 1.15723,-0.585937 2.73926,-0.585937 1.58203,0 2.82715,0.673828 1.25976,0.673828 1.96289,2.182617 l 0.0732,0 q 0,-0.307617 0.0146,-0.703125 0.0293,-0.410156 0.0586,-0.776367 0.0293,-0.380859 0.0586,-0.673828 0.044,-0.292969 0.0733,-0.395508 l 3.89648,0 q -0.0293,0.527344 -0.0586,1.479492 -0.0293,0.952149 -0.0293,2.182617 l 0,11.704102 q 0,1.728516 -0.49805,3.00293 -0.49804,1.289062 -1.46484,2.138671 -0.95215,0.84961 -2.3584,1.274415 -1.3916,0.424804 -3.17871,0.424804 z m 3.44238,-14.501953 q 0,-1.494141 -0.29297,-2.490234 -0.29296,-0.996094 -0.76171,-1.59668 -0.46875,-0.600586 -1.08399,-0.849609 -0.60059,-0.249024 -1.21582,-0.249024 -0.79102,0 -1.40625,0.307617 -0.60059,0.307618 -1.02539,0.952149 -0.4248,0.644531 -0.64453,1.640625 -0.21973,0.996094 -0.21973,2.373047 0,2.563476 0.82031,3.867187 0.82032,1.303711 2.44629,1.303711 0.61524,0 1.21582,-0.234375 0.61524,-0.249023 1.09864,-0.849609 0.4834,-0.615235 0.77636,-1.625977 0.29297,-1.010742 0.29297,-2.548828 z"
         style="font-style:normal;font-variant:normal;font-weight:bold;font-stretch:normal;font-size:30px;font-family:'Liberation Sans';-inkscape-font-specification:'Liberation Sans Bold';text-align:center;text-anchor:middle;fill:#676767;fill-opacity:1"
         id="path4221" />
      <path
         d="m 199.2666,75.466629 q 0,1.801758 -0.36621,3.325195 -0.35156,1.508789 -1.09863,2.622071 -0.74707,1.098632 -1.9043,1.713867 -1.14258,0.615234 -2.70996,0.615234 -0.70313,0 -1.40625,-0.146484 -0.70313,-0.146485 -1.33301,-0.483399 -0.62988,-0.336914 -1.15722,-0.878906 -0.52735,-0.541992 -0.90821,-1.333008 l -0.0293,0 q 0,0.307617 -0.0293,0.703125 -0.0146,0.395508 -0.0439,0.776367 -0.0293,0.366211 -0.0732,0.65918 -0.0293,0.292969 -0.0586,0.410156 l -3.99903,0 q 0.044,-0.512695 0.0733,-1.450195 0.0439,-0.952148 0.0439,-2.167969 l 0,-18.120117 4.11621,0 0,6.064453 q 0,0.46875 -0.0147,0.922852 0,0.439453 -0.0146,0.820312 -0.0147,0.439453 -0.0293,0.834961 l 0.0586,0 q 0.74707,-1.640625 2.05078,-2.34375 1.30371,-0.703125 3.01758,-0.703125 1.52344,0 2.62207,0.615235 1.09863,0.600586 1.80176,1.699218 0.71777,1.083985 1.05469,2.578125 0.33691,1.494141 0.33691,3.266602 z m -4.29199,0 q 0,-2.695313 -0.79102,-3.999024 -0.79101,-1.30371 -2.44629,-1.30371 -0.62988,0 -1.24511,0.249023 -0.61524,0.249023 -1.09864,0.878906 -0.48339,0.615235 -0.77636,1.669922 -0.29297,1.040039 -0.29297,2.636719 0,1.552734 0.29297,2.578125 0.29297,1.02539 0.76172,1.640625 0.46875,0.615234 1.08398,0.864258 0.61523,0.249023 1.24512,0.249023 1.56738,0 2.41699,-1.289062 0.84961,-1.303711 0.84961,-4.174805 z"
         style="font-style:normal;font-variant:normal;font-weight:bold;font-stretch:normal;font-size:30px;font-family:'Liberation Sans';-inkscape-font-specification:'Liberation Sans Bold';text-align:center;text-anchor:middle;fill:#676767;fill-opacity:1"
         id="path4223" />
      <path
         d="m 206.26855,83.742996 q -1.14257,0 -2.05078,-0.307617 -0.89355,-0.322266 -1.52343,-0.922852 -0.62989,-0.615234 -0.9668,-1.508789 -0.33692,-0.893554 -0.33692,-2.036133 0,-1.40625 0.4834,-2.358398 0.49805,-0.966797 1.34766,-1.552734 0.84961,-0.600586 1.99219,-0.864258 1.14258,-0.27832 2.43164,-0.292969 l 3.41308,-0.05859 0,-0.805664 q 0,-0.864258 -0.16113,-1.435547 -0.14648,-0.585937 -0.43945,-0.952148 -0.29297,-0.366211 -0.73242,-0.512695 -0.42481,-0.161133 -0.98145,-0.161133 -0.51269,0 -0.92285,0.102539 -0.39551,0.102539 -0.68848,0.366211 -0.29297,0.249023 -0.4834,0.688476 -0.17578,0.424805 -0.24902,1.083985 l -4.29199,-0.205078 q 0.17578,-1.040039 0.64453,-1.889649 0.46875,-0.864258 1.28906,-1.49414 0.83496,-0.629883 2.03613,-0.966797 1.21583,-0.351563 2.8418,-0.351563 1.47949,0 2.63672,0.366211 1.15723,0.366211 1.96289,1.098633 0.80567,0.717773 1.23047,1.772461 0.4248,1.054687 0.4248,2.446289 l 0,5.771484 q 0,0.556641 0.0439,0.996094 0.0586,0.439453 0.19043,0.74707 0.14648,0.292969 0.39551,0.454102 0.26367,0.146484 0.67383,0.146484 0.46875,0 0.9082,-0.08789 l 0,2.226562 q -0.36621,0.08789 -0.65918,0.161133 -0.29297,0.07324 -0.58594,0.117188 -0.29297,0.04395 -0.62988,0.07324 -0.32227,0.0293 -0.76172,0.0293 -1.55273,0 -2.2998,-0.761719 -0.73243,-0.761719 -0.87891,-2.241211 l -0.0879,0 q -0.82031,1.479492 -2.10938,2.299805 -1.27441,0.820312 -3.10547,0.820312 z m 4.79004,-7.631836 -2.10937,0.0293 q -0.65918,0.0293 -1.25977,0.117188 -0.58593,0.07324 -1.04004,0.336914 -0.43945,0.249023 -0.70312,0.732421 -0.26367,0.483399 -0.26367,1.31836 0,1.12793 0.51269,1.68457 0.52735,0.541992 1.3916,0.541992 0.79102,0 1.43555,-0.336914 0.64453,-0.336914 1.08399,-0.878906 0.4541,-0.556641 0.70312,-1.274414 0.24902,-0.717773 0.24902,-1.464844 l 0,-0.805664 z"
         style="font-style:normal;font-variant:normal;font-weight:bold;font-stretch:normal;font-size:30px;font-family:'Liberation Sans';-inkscape-font-specification:'Liberation Sans Bold';text-align:center;text-anchor:middle;fill:#676767;fill-opacity:1"
         id="path4225" />
      <path
         d="m 219.30566,83.450027 0,-12.128906 q 0,-0.512695 -0.0146,-1.083984 0,-0.571289 -0.0293,-1.083985 -0.0146,-0.527343 -0.0293,-0.9375 -0.0146,-0.424804 -0.0439,-0.615234 l 3.92578,0 q 0.0293,0.175781 0.0586,0.615234 0.0293,0.424805 0.0586,0.9375 0.0293,0.512696 0.0439,1.025391 0.0293,0.498047 0.0293,0.805664 l 0.0586,0 q 0.30762,-0.864258 0.61524,-1.538086 0.30761,-0.688476 0.71777,-1.157226 0.4248,-0.483399 1.01074,-0.732422 0.58594,-0.263672 1.4502,-0.263672 0.36621,0 0.71777,0.07324 0.36621,0.05859 0.55664,0.146484 l 0,3.442383 q -0.39551,-0.08789 -0.80566,-0.146484 -0.39551,-0.07324 -0.95215,-0.07324 -1.53809,0 -2.40235,1.245117 -0.84961,1.245117 -0.84961,3.691406 l 0,7.77832 -4.11621,0 z"
         style="font-style:normal;font-variant:normal;font-weight:bold;font-stretch:normal;font-size:30px;font-family:'Liberation Sans';-inkscape-font-specification:'Liberation Sans Bold';text-align:center;text-anchor:middle;fill:#676767;fill-opacity:1"
         id="path4227" />
    </g>
  </g>
</svg>
